<?xml version="1.0" encoding="utf-8"?>
<!-- Generator: Adobe Illustrator 19.0.0, SVG Export Plug-In . SVG Version: 6.00 Build 0)  -->
<svg version="1.1" id="Layer_1" xmlns="http://www.w3.org/2000/svg" xmlns:xlink="http://www.w3.org/1999/xlink" x="0px" y="0px"
	 viewBox="0 0 261.1 42.6" style="enable-background:new 0 0 261.1 42.6;" xml:space="preserve">
<style type="text/css">
	.st0{fill:#003DA6;}
	.st1{fill:#B1B1B1;}
	.st2{filter:url(#Adobe_OpacityMaskFilter);}
	.st3{fill:url(#SVGID_2_);}
	.st4{mask:url(#SVGID_1_);}
	.st5{fill:none;stroke:#003DA6;stroke-width:0.5;}
</style>
<g>
	<g id="XMLID_63_">
		<path id="XMLID_64_" class="st0" d="M7.5,0.3c4.9,0,7.8,2.3,7.8,5.7c0,3.5-3.6,6-8.3,6H3.2v10.6h2v0.1h-7.4v-0.1h2V0.4h-2V0.3H7.5
			z M3.2,11.9h3.4c3.8,0,5.3-2.6,5.3-5.8c0-3.1-1.6-5.7-5.2-5.7H3.2V11.9z"/>
		<path id="XMLID_67_" class="st0" d="M33.5,0.3h7.4v0.1h-2v22.2h2v0.1h-7.4v-0.1h2v-11H25.2v11h2v0.1h-7.4v-0.1h2V0.4h-2V0.3h7.4
			v0.1h-2v11.1h10.3V0.4L33.5,0.3L33.5,0.3z"/>
		<path id="XMLID_69_" class="st0" d="M50.7,0.4v22.2h2v0.1h-7.4v-0.1h2V0.4h-2V0.3h7.4v0.1H50.7z"/>
		<path id="XMLID_71_" class="st0" d="M62.5,0.4v22.2h4.9c3.8,0,5.1-1.7,5.7-5.7h0.1v5.8h-16v-0.1h2V0.4h-2V0.3h7.4v0.1H62.5z"/>
		<path id="XMLID_73_" class="st0" d="M83.3,0.4v22.2h4.9c3.8,0,5.1-1.7,5.7-5.7h0.1v5.8h-16v-0.1h2V0.4h-2V0.3h7.4v0.1H83.3z"/>
		<path id="XMLID_75_" class="st0" d="M104.1,0.4v22.2h2v0.1h-7.4v-0.1h2V0.4h-2V0.3h7.4v0.1H104.1z"/>
		<path id="XMLID_77_" class="st0" d="M120.2,0.3c4.9,0,7.8,2.3,7.8,5.7c0,3.5-3.6,6-8.3,6h-3.9v10.6h2v0.1h-7.4v-0.1h2V0.4h-2V0.3
			H120.2z M115.9,11.9h3.4c3.8,0,5.3-2.6,5.3-5.8c0-3.1-1.6-5.7-5.2-5.7h-3.5V11.9z"/>
		<path id="XMLID_80_" class="st0" d="M163.9,17.4c-0.4,3.3-2.8,5.7-7.2,5.7c-5.9,0-9.7-5.1-9.7-11.4C146.9,5,151.2,0,157.3,0
			c2.8,0,3.6,1.2,5.2,1.2c0.7,0,1.1-0.4,1.2-1.2h0.1v6.8h-0.1c-0.7-3.8-2.2-6.6-6.2-6.6c-4.9,0-6.8,4.9-6.8,11.3
			c0,6.4,2.9,11,7.5,11c2.9,0,5.3-1.7,5.7-5H163.9z"/>
		<path id="XMLID_82_" class="st0" d="M182.5,0.3h7.4v0.1h-2v22.2h2v0.1h-7.4v-0.1h2v-11h-10.3v11h2v0.1h-7.4v-0.1h2V0.4h-2V0.3h7.4
			v0.1h-2v11.1h10.3V0.4L182.5,0.3L182.5,0.3z"/>
		<path id="XMLID_84_" class="st0" d="M216,22.6L216,22.6l-7.6,0.1v-0.1h2.1l-3.6-9.3h-7.9l-2.1,5.9c-0.2,0.5-0.3,1-0.3,1.4
			c0,1.2,0.7,2,2.3,2h0.2v0.1h-5.6v-0.1h0.1c1.5,0,2.4-1.6,3.1-3.5l6.8-18.8h1.8l8.7,22.3H216z M207,13.2l-4-10.4l-3.8,10.4H207z"/>
		<path id="XMLID_87_" class="st0" d="M239.8,0.4c-1.2,0-2.1,1.2-2.1,4v18.3h-3.1L222,0.7v18c0,3,1.2,4,2.4,4v0.1h-4.6v-0.1
			c1.2,0,2.1-1.2,2.1-4V0.4h-2V0.3h5.8l11.9,21.3V4.4c0-3-1.1-4-2.4-4V0.3L239.8,0.4L239.8,0.4z"/>
		<path id="XMLID_89_" class="st0" d="M261.8,22.8c0-1.6-0.4-2.3-1.2-2.3c-1.9,0-2.8,2.5-6.4,2.5c-5.9,0-10-5.1-10-11.4
			C244.2,5,248.5,0,254.6,0c2.8,0,3.6,1.2,5.2,1.2c0.7,0,1.1-0.4,1.1-1.2h0.1v6.8H261c-0.8-3.8-2.2-6.6-6.2-6.6
			c-4.9,0-6.9,4.9-6.9,11.4c0,6.3,2,11.4,6.3,11.4c2.8,0,4.6-1.6,4.6-4.8v-4.6h-2.4v-0.1h7.4v0.1h-1.9v9.7h-0.1V22.8z"/>
	</g>
	<g id="XMLID_1_">
		<path id="XMLID_2_" class="st1" d="M4.1,37.1c0,0.8-0.3,1.4-0.8,1.8c-0.5,0.4-1.3,0.6-2.3,0.6H0v3.1h-0.9v-7.9h2
			C3.1,34.8,4.1,35.5,4.1,37.1z M0,38.8h0.8c0.8,0,1.4-0.1,1.8-0.4s0.5-0.7,0.5-1.3c0-0.5-0.2-0.9-0.5-1.2S1.7,35.6,1,35.6H0V38.8z"
			/>
		<path id="XMLID_5_" class="st1" d="M13.8,42.6l-1-2.5H9.7l-1,2.5H7.8l3.1-7.9h0.8l3.1,7.9H13.8z M12.6,39.3l-0.9-2.4
			c-0.1-0.3-0.2-0.7-0.4-1.1c-0.1,0.3-0.2,0.7-0.3,1.1L10,39.3H12.6z"/>
		<path id="XMLID_8_" class="st1" d="M23.4,42.6H19v-7.9h4.4v0.8H20v2.5h3.3v0.8H20v2.9h3.5V42.6z"/>
		<path id="XMLID_10_" class="st1" d="M34.6,38.6c0,1.3-0.4,2.3-1.1,3c-0.7,0.7-1.7,1-3,1h-2.2v-7.9h2.4c1.2,0,2.2,0.3,2.8,1
			C34.3,36.5,34.6,37.4,34.6,38.6z M33.6,38.7c0-1-0.3-1.8-0.8-2.3c-0.5-0.5-1.3-0.8-2.3-0.8h-1.3v6.3h1.1c1.1,0,1.9-0.3,2.5-0.8
			S33.6,39.7,33.6,38.7z"/>
		<path id="XMLID_13_" class="st1" d="M39.5,42.6v-7.9h0.9v7.9H39.5z"/>
		<path id="XMLID_15_" class="st1" d="M50.7,42.6l-1-2.5h-3.1l-1,2.5h-0.9l3.1-7.9h0.8l3.1,7.9H50.7z M49.5,39.3l-0.9-2.4
			c-0.1-0.3-0.2-0.7-0.4-1.1c-0.1,0.3-0.2,0.7-0.3,1.1l-0.9,2.4H49.5z"/>
		<path id="XMLID_18_" class="st1" d="M58.4,42.6h-0.9v-7H55v-0.8h5.9v0.8h-2.5V42.6z"/>
		<path id="XMLID_20_" class="st1" d="M66.1,39.4v3.3h-0.9v-7.9h2.2c1,0,1.7,0.2,2.1,0.6c0.5,0.4,0.7,0.9,0.7,1.7
			c0,1-0.5,1.7-1.6,2.1l2.1,3.5h-1.1l-1.9-3.3H66.1z M66.1,38.6h1.3c0.6,0,1.1-0.1,1.4-0.4s0.5-0.6,0.5-1.2c0-0.5-0.2-0.9-0.5-1.1
			c-0.3-0.2-0.8-0.3-1.5-0.3h-1.2V38.6z"/>
		<path id="XMLID_23_" class="st1" d="M75.2,42.6v-7.9h0.9v7.9H75.2z"/>
		<path id="XMLID_25_" class="st1" d="M84.8,35.5c-0.9,0-1.5,0.3-2,0.9c-0.5,0.6-0.7,1.4-0.7,2.4c0,1,0.2,1.8,0.7,2.4
			c0.5,0.6,1.2,0.8,2.1,0.8c0.5,0,1.2-0.1,1.9-0.3v0.8c-0.5,0.2-1.2,0.3-2,0.3c-1.2,0-2-0.4-2.7-1.1C81.3,41,81,40,81,38.7
			c0-0.8,0.2-1.5,0.5-2.1c0.3-0.6,0.7-1.1,1.3-1.4c0.6-0.3,1.2-0.5,2-0.5c0.8,0,1.5,0.2,2.2,0.5l-0.4,0.8
			C86,35.6,85.4,35.5,84.8,35.5z"/>
		<path id="XMLID_27_" class="st1" d="M102.6,42.6l-1-2.5h-3.1l-1,2.5h-0.9l3.1-7.9h0.8l3.1,7.9H102.6z M101.3,39.3l-0.9-2.4
			c-0.1-0.3-0.2-0.7-0.4-1.1c-0.1,0.3-0.2,0.7-0.3,1.1l-0.9,2.4H101.3z"/>
		<path id="XMLID_30_" class="st1" d="M113.9,42.6h-1l-4.3-6.6h0c0.1,0.8,0.1,1.5,0.1,2.1v4.5h-0.8v-7.9h1l4.3,6.6h0
			c0-0.1,0-0.4,0-0.9s0-0.9,0-1.1v-4.5h0.9V42.6z"/>
		<path id="XMLID_32_" class="st1" d="M125.5,38.6c0,1.3-0.4,2.3-1.1,3c-0.7,0.7-1.7,1-3,1h-2.2v-7.9h2.4c1.2,0,2.2,0.3,2.8,1
			C125.2,36.5,125.5,37.4,125.5,38.6z M124.6,38.7c0-1-0.3-1.8-0.8-2.3c-0.5-0.5-1.3-0.8-2.3-0.8h-1.3v6.3h1.1
			c1.1,0,1.9-0.3,2.5-0.8S124.6,39.7,124.6,38.7z"/>
		<path id="XMLID_35_" class="st1" d="M141.4,42.6l-1-2.5h-3.1l-1,2.5h-0.9l3.1-7.9h0.8l3.1,7.9H141.4z M140.2,39.3l-0.9-2.4
			c-0.1-0.3-0.2-0.7-0.4-1.1c-0.1,0.3-0.2,0.7-0.3,1.1l-0.9,2.4H140.2z"/>
		<path id="XMLID_38_" class="st1" d="M152.9,38.6c0,1.3-0.4,2.3-1.1,3s-1.7,1-3,1h-2.2v-7.9h2.4c1.2,0,2.2,0.3,2.8,1
			C152.6,36.5,152.9,37.4,152.9,38.6z M152,38.7c0-1-0.3-1.8-0.8-2.3c-0.5-0.5-1.3-0.8-2.3-0.8h-1.3v6.3h1.1c1.1,0,1.9-0.3,2.5-0.8
			S152,39.7,152,38.7z"/>
		<path id="XMLID_41_" class="st1" d="M163.8,34.8v5.1c0,0.9-0.3,1.6-0.8,2.1c-0.5,0.5-1.3,0.8-2.2,0.8s-1.7-0.3-2.2-0.8
			s-0.8-1.2-0.8-2.1v-5.1h0.9v5.1c0,0.7,0.2,1.2,0.5,1.5c0.4,0.4,0.9,0.5,1.6,0.5c0.7,0,1.2-0.2,1.5-0.5s0.5-0.9,0.5-1.5v-5.1H163.8
			z"/>
		<path id="XMLID_43_" class="st1" d="M169.1,42.6v-7.9h0.9v7h3.5v0.8H169.1z"/>
		<path id="XMLID_45_" class="st1" d="M180.4,42.6h-0.9v-7H177v-0.8h5.9v0.8h-2.5V42.6z"/>
		<path id="XMLID_47_" class="st1" d="M197.7,40.5c0,0.7-0.2,1.2-0.8,1.6c-0.5,0.4-1.2,0.6-2,0.6c-0.9,0-1.6-0.1-2.1-0.4v-0.9
			c0.3,0.1,0.7,0.2,1.1,0.3c0.4,0.1,0.8,0.1,1.1,0.1c0.6,0,1.1-0.1,1.4-0.3c0.3-0.2,0.5-0.6,0.5-1c0-0.3-0.1-0.5-0.2-0.7
			c-0.1-0.2-0.3-0.3-0.5-0.5c-0.3-0.1-0.6-0.3-1.2-0.5c-0.7-0.3-1.3-0.6-1.6-0.9c-0.3-0.4-0.5-0.8-0.5-1.4c0-0.6,0.2-1.1,0.7-1.4
			c0.5-0.4,1.1-0.5,1.8-0.5c0.8,0,1.5,0.1,2.2,0.4l-0.3,0.8c-0.6-0.3-1.3-0.4-1.9-0.4c-0.5,0-0.9,0.1-1.1,0.3
			c-0.3,0.2-0.4,0.5-0.4,0.9c0,0.3,0,0.5,0.2,0.7s0.3,0.3,0.5,0.5c0.2,0.1,0.6,0.3,1.1,0.5c0.8,0.3,1.4,0.6,1.7,0.9
			C197.5,39.6,197.7,40,197.7,40.5z"/>
		<path id="XMLID_49_" class="st1" d="M208.4,34.8v5.1c0,0.9-0.3,1.6-0.8,2.1c-0.5,0.5-1.3,0.8-2.2,0.8s-1.7-0.3-2.2-0.8
			s-0.8-1.2-0.8-2.1v-5.1h0.9v5.1c0,0.7,0.2,1.2,0.5,1.5c0.4,0.4,0.9,0.5,1.6,0.5c0.7,0,1.2-0.2,1.5-0.5c0.4-0.4,0.5-0.9,0.5-1.5
			v-5.1H208.4z"/>
		<path id="XMLID_51_" class="st1" d="M214.6,39.4v3.3h-0.9v-7.9h2.2c1,0,1.7,0.2,2.1,0.6c0.5,0.4,0.7,0.9,0.7,1.7
			c0,1-0.5,1.7-1.6,2.1l2.1,3.5h-1.1l-1.9-3.3H214.6z M214.6,38.6h1.3c0.6,0,1.1-0.1,1.4-0.4s0.5-0.6,0.5-1.2c0-0.5-0.2-0.9-0.5-1.1
			c-0.3-0.2-0.8-0.3-1.5-0.3h-1.2V38.6z"/>
		<path id="XMLID_54_" class="st1" d="M227.1,38.5h2.7v3.8c-0.4,0.1-0.8,0.2-1.3,0.3c-0.4,0.1-0.9,0.1-1.5,0.1
			c-1.2,0-2.1-0.4-2.8-1.1c-0.7-0.7-1-1.7-1-3c0-0.8,0.2-1.5,0.5-2.1c0.3-0.6,0.8-1.1,1.4-1.4c0.6-0.3,1.3-0.5,2.2-0.5
			c0.8,0,1.6,0.2,2.3,0.5l-0.4,0.8c-0.7-0.3-1.4-0.5-2-0.5c-1,0-1.7,0.3-2.2,0.9s-0.8,1.4-0.8,2.4c0,1.1,0.3,1.9,0.8,2.4
			c0.5,0.5,1.3,0.8,2.3,0.8c0.5,0,1.1-0.1,1.6-0.2v-2.4h-1.8V38.5z"/>
		<path id="XMLID_56_" class="st1" d="M239.2,42.6h-4.4v-7.9h4.4v0.8h-3.5v2.5h3.3v0.8h-3.3v2.9h3.5V42.6z"/>
		<path id="XMLID_58_" class="st1" d="M251,38.7c0,1.3-0.3,2.2-1,3c-0.6,0.7-1.5,1.1-2.7,1.1c-1.2,0-2-0.4-2.7-1.1
			c-0.6-0.7-0.9-1.7-0.9-3c0-1.3,0.3-2.3,0.9-3c0.6-0.7,1.5-1.1,2.7-1.1c1.1,0,2,0.4,2.6,1.1C250.6,36.4,251,37.4,251,38.7z
			 M244.7,38.7c0,1.1,0.2,1.9,0.7,2.4c0.5,0.5,1.1,0.8,2,0.8c0.9,0,1.5-0.3,2-0.8s0.7-1.4,0.7-2.4c0-1.1-0.2-1.9-0.7-2.4
			c-0.4-0.5-1.1-0.8-2-0.8c-0.9,0-1.5,0.3-2,0.8C244.9,36.8,244.7,37.6,244.7,38.7z"/>
		<path id="XMLID_61_" class="st1" d="M262,42.6h-1l-4.3-6.6h0c0.1,0.8,0.1,1.5,0.1,2.1v4.5h-0.8v-7.9h1l4.3,6.6h0
			c0-0.1,0-0.4,0-0.9c0-0.5,0-0.9,0-1.1v-4.5h0.9V42.6z"/>
	</g>
	<defs>
		<filter id="Adobe_OpacityMaskFilter" filterUnits="userSpaceOnUse" x="-2" y="28.2" width="264.2" height="0.5">
			<feFlood  style="flood-color:white;flood-opacity:1" result="back"/>
			<feBlend  in="SourceGraphic" in2="back" mode="normal"/>
		</filter>
	</defs>
	<mask maskUnits="userSpaceOnUse" x="-2" y="28.2" width="264.2" height="0.5" id="SVGID_1_">
		<g class="st2">
			
				<linearGradient id="SVGID_2_" gradientUnits="userSpaceOnUse" x1="-161.7793" y1="643.4913" x2="-160.7793" y2="643.4913" gradientTransform="matrix(0 -8.5 -8.5 0 5607.3779 -1345.4062)">
				<stop  offset="0" style="stop-color:#E6E6E6"/>
				<stop  offset="1" style="stop-color:#FFFFFF"/>
			</linearGradient>
			<rect x="-2.8" y="-1.3" class="st3" width="281" height="44"/>
		</g>
	</mask>
	<g class="st4">
		<g>
			<line class="st5" x1="-2" y1="28.5" x2="262.2" y2="28.5"/>
		</g>
	</g>
</g>
</svg>
